PathFileType	4	(X/Y/Z)	1_coords_data.trc
DataRate	CameraRate	NumFrames	NumMarkers	Units	OrigDataRate	OrigDataStartFrame	OrigNumFrames
30.0	30.0	8	21	m	30.0	21	51
Frame#	Time	THUMB_TIP	THUMB_IP	THUMB_MCP	THUMB_CMC	INDEX_TIP	INDEX_DIP	INDEX_PIP	INDEX_MCP	MIDDLE_TIP	MIDDLE_DIP	MIDDLE_PIP	MIDDLE_MCP	RING_TIP	RING_DIP	RING_PIP	RING_MCP	PINKY_TIP	PINKY_DIP	PINKY_PIP	PINKY_MCP	WRIST
X1	Y1	Z1	X2	Y2	Z2	X3	Y3	Z3	X4	Y4	Z4	X5	Y5	Z5	X6	Y6	Z6	X7	Y7	Z7	X8	Y8	Z8	X9	Y9	Z9	X10	Y10	Z10	X11	Y11	Z11	X12	Y12	Z12	X13	Y13	Z13	X14	Y14	Z14	X15	Y15	Z15	X16	Y16	Z16	X17	Y17	Z17	X18	Y18	Z18	X19	Y19	Z19	X20	Y20	Z20	X21	Y21	Z21
20	0.6666666666666666	-0.01910700035095215	-0.06578170013427734	0.9511480102539063	-0.015795599937438964	-0.04218949890136719	0.9608590087890625	-0.028469100952148437	-0.020552200317382814	0.9735289916992188	-0.03567070007324219	0.01149120044708252	0.9868619995117187	0.0076299400329589845	0.00040091401338577203	0.8534669799804687	0.002847539901733398	0.001612969994544983	0.8760800170898437	-0.0024795899391174313	0.003678669929504394	0.8985280151367188	-0.012473600387573242	0.00961011028289795	0.9340369873046875	0.01040429973602295	0.038717098236083984	0.8427410278320312	0.0035397799015045163	0.03737530136108398	0.8664290161132813	-0.003872050046920776	0.03510089874267578	0.89368798828125	-0.013104999542236328	0.032768798828125	0.9306680297851563	0.018246099472045897	0.07317549896240234	0.8670490112304687	0.00948052978515625	0.06841799926757812	0.88681298828125	0.002673019886016845	0.062154598236083984	0.9089559936523437	-0.008303930282592773	0.05203229904174805	0.9392940063476563	0.01787879943847656	0.11142900085449219	0.9185789794921875	0.009997190475463867	0.09846810150146484	0.929781005859375	0.0035013399124145506	0.08652729797363282	0.939468017578125	-0.006879109859466553	0.06757160186767579	0.9538259887695313	-0.059057998657226565	0.03943920135498047	0.9973140258789063
21	0.7	-0.01909700012207031	-0.06559459686279297	0.9515	-0.015750200271606445	-0.042035499572753904	0.9611409912109375	-0.0284778995513916	-0.020436700820922853	0.9738070068359375	-0.03579690170288086	0.011546299934387208	0.9871890258789062	0.00738601016998291	0.0008850610256195061	0.853823974609375	0.002762190103530884	0.001958119988441467	0.8763140258789063	-0.002659240007400512	0.003946650028228759	0.8988189697265625	-0.01259850025177002	0.00978831958770752	0.9344299926757812	0.010043199539184571	0.039360298156738284	0.8429879760742187	0.003281399965286255	0.03784909820556641	0.8667559814453125	-0.004082900047302246	0.035477699279785155	0.8939979858398438	-0.013165300369262695	0.03291939926147461	0.930926025390625	0.017655799865722657	0.07366030120849609	0.8672999877929688	0.008992859840393067	0.0687917022705078	0.8872269897460937	0.002428469896316528	0.06238869857788086	0.9093809814453125	-0.008259779930114746	0.05215869903564453	0.939698974609375	0.01700979995727539	0.11179900360107421	0.9187479858398437	0.009411120414733886	0.0987760009765625	0.9300659790039062	0.0032142300605773923	0.08677079772949219	0.9397839965820313	-0.006971570014953613	0.06769660186767579	0.9542420043945312	-0.05912929916381836	0.03953409957885742	0.9977410278320312
22	0.7333333333333333	-0.018622699737548827	-0.06554679870605469	0.9518740234375	-0.015390600204467773	-0.04194599914550781	0.9616129760742187	-0.028315299987792968	-0.020324199676513673	0.974302978515625	-0.03570840072631836	0.011629199981689453	0.9876110229492188	0.006969240188598633	0.001153120040893554	0.8538829956054688	0.002309839963912964	0.0022045600414276117	0.8765750122070313	-0.003023950099945068	0.004110139846801758	0.8991699829101563	-0.012745400428771973	0.009843480110168458	0.9347940063476563	0.009533499717712402	0.03995719909667969	0.8431690063476562	0.002904550075531006	0.03827420043945313	0.8669869995117188	-0.004366569995880127	0.035733100891113284	0.8942769775390625	-0.01344849967956543	0.03300450134277344	0.9313259887695312	0.017249500274658203	0.07370970153808594	0.867510986328125	0.008788649559020995	0.06878849792480468	0.8873809814453125	0.0023109200000762937	0.06242399978637695	0.9096539916992188	-0.008585249900817871	0.052222900390625	0.939906005859375	0.0166072998046875	0.11168800354003906	0.9186500244140625	0.00913344955444336	0.09867739868164062	0.930083984375	0.002966109991073608	0.08669219970703125	0.9398330078125	-0.0069988899230957035	0.06770989990234375	0.9545380249023437	-0.05917430114746094	0.03951290130615234	0.9983579711914062
23	0.7666666666666667	-0.01752199935913086	-0.06558920288085937	0.952072998046875	-0.014682299613952636	-0.041895401000976565	0.9617899780273438	-0.02788759994506836	-0.020451299667358397	0.9747039794921875	-0.035374801635742185	0.011473999977111817	0.98814501953125	0.006481569766998291	0.0015077799558639521	0.8540490112304687	0.001781520009040832	0.0024136099815368654	0.8766019897460937	-0.003518840074539184	0.004166100025177002	0.8991799926757813	-0.013055999755859376	0.009727720260620118	0.934822998046875	0.008904470443725585	0.04163610076904297	0.843344970703125	0.0023105499744415278	0.03940750122070313	0.867208984375	-0.00499360990524292	0.036319698333740234	0.8943930053710938	-0.013867400169372558	0.03290750122070313	0.9316079711914063	0.016497600555419923	0.07400430297851562	0.8675869750976563	0.008238840103149413	0.0689136962890625	0.8877109985351562	0.001788689970970153	0.06239870071411133	0.9099210205078125	-0.008761199951171875	0.051997398376464846	0.94022900390625	0.015517800331115723	0.11140599822998047	0.9182520141601562	0.008438289642333984	0.09840309906005859	0.9298909912109375	0.002574280023574829	0.08641300201416016	0.9399249877929687	-0.007266419887542725	0.0674998016357422	0.9547869873046875	-0.058942001342773435	0.03923089981079102	0.9985659790039062
24	0.8	-0.015307100296020507	-0.06536430358886719	0.9512239990234375	-0.013306699752807617	-0.0416151008605957	0.961197998046875	-0.02720359992980957	-0.020488500595092773	0.9747849731445313	-0.03465909957885742	0.011240099906921387	0.9883410034179687	0.006310359954833984	0.0027815299034118653	0.8533920288085938	0.001116940021514892	0.003275860071182251	0.8760280151367188	-0.004560750007629394	0.004648439884185791	0.898593017578125	-0.01425879955291748	0.009607219696044922	0.9346090087890625	0.00842053985595703	0.044149799346923826	0.8433389892578125	0.0015442999601364131	0.04115430068969726	0.8669730224609375	-0.006311379909515381	0.0372869987487793	0.8940020141601562	-0.01526200008392334	0.032842899322509764	0.9313920288085937	0.015437999725341796	0.07482160186767578	0.86727099609375	0.007198910236358643	0.0693488998413086	0.8874119873046875	0.000690217971801757	0.06256850051879882	0.9097050170898437	-0.009986410140991211	0.051775398254394533	0.940052978515625	0.014539699554443359	0.11093199920654297	0.9172039794921875	0.007647990226745605	0.09782869720458984	0.9290440063476563	0.0018510299921035763	0.08595089721679687	0.939302978515625	-0.007959990024566651	0.0670426025390625	0.9543770141601563	-0.058407299041748045	0.03862429809570313	0.9992890014648438
25	0.8333333333333334	-0.013520099639892579	-0.06473210144042969	0.9498319702148438	-0.012640800476074219	-0.040972000122070314	0.9601290283203125	-0.02706279945373535	-0.020385099411010743	0.9745070190429688	-0.03427209854125977	0.01118850040435791	0.98827001953125	0.007691180229187012	0.0032943499088287347	0.8536669921875	0.000905407011508941	0.0034473400115966786	0.8754140014648437	-0.005964640140533447	0.004468790054321289	0.8976229858398438	-0.016474599838256835	0.008972720146179199	0.9337109985351563	0.011637399673461914	0.04502470016479492	0.8443369750976563	0.0027081599235534667	0.04174800109863281	0.8668070068359375	-0.007117499828338623	0.03749580001831055	0.8932269897460937	-0.017190000534057618	0.03227349853515625	0.9304010009765625	0.017508899688720703	0.07292440032958984	0.8668369750976562	0.00827886962890625	0.06788680267333984	0.8866119995117188	0.00040231099724769503	0.06147090148925781	0.9087659912109375	-0.011747599601745606	0.051176498413085934	0.939155029296875	0.017143499374389647	0.10791500091552735	0.9146719970703125	0.008951180458068848	0.09559819793701171	0.92677001953125	0.0020269300937652587	0.08435929870605469	0.9374210205078125	-0.008785610198974609	0.06623090362548828	0.9533259887695312	-0.05721590042114258	0.03837289810180664	0.9995089721679687
26	0.8666666666666667	-0.012618100166320801	-0.06328369903564453	0.9468980102539063	-0.012796099662780763	-0.039790298461914064	0.9581729736328125	-0.027685100555419923	-0.019999300003051758	0.9736640014648438	-0.03413069915771484	0.011438199996948242	0.9879110107421875	0.011431500434875489	0.003750659942626953	0.8547319946289063	0.0021018800735473626	0.00373809003829956	0.8754869995117187	-0.007101749897003174	0.004599559783935547	0.8969749755859375	-0.019440900802612304	0.00863484001159668	0.93239599609375	0.017917900085449218	0.04583629989624023	0.846906005859375	0.006340620040893555	0.04247090148925781	0.86777197265625	-0.006369379997253418	0.038052799224853516	0.8927260131835938	-0.019026699066162108	0.03209889984130859	0.9294530029296875	0.020513599395751952	0.070091796875	0.8667160034179687	0.010259699821472169	0.06577850341796875	0.8860089721679687	0.0009051049947738641	0.06002529907226563	0.9080579833984375	-0.012931099891662598	0.050634700775146486	0.9380159912109375	0.021644599914550783	0.10329900360107422	0.9126729736328125	0.01172719955444336	0.09240979766845703	0.9248289794921875	0.003212500095367431	0.08224590301513672	0.9356630249023438	-0.009090579986572266	0.06541649627685547	0.9522440185546875	-0.05624160003662109	0.03855559921264649	0.9997249755859375
27	0.9	-0.00922426986694336	-0.05935990142822266	0.9408909912109376	-0.011563799858093261	-0.036730300903320315	0.9540430297851562	-0.02718280029296875	-0.01902750015258789	0.9716900024414062	-0.03321269989013672	0.011700300216674805	0.9871240234375	0.01602330017089844	0.007218220233917236	0.857010009765625	0.004081989765167236	0.006360960006713867	0.8761539916992187	-0.007661449909210205	0.006323450088500977	0.8962969970703125	-0.02312229919433594	0.009113360404968261	0.9304840087890625	0.021078699111938475	0.04837990188598633	0.8491519775390625	0.0076731500625610355	0.044689098358154294	0.8687529907226562	-0.0072771902084350585	0.0396609992980957	0.8921400146484375	-0.02268009948730469	0.032768299102783206	0.92810400390625	0.01924180030822754	0.07052030181884765	0.8658939819335938	0.008841279983520509	0.066177001953125	0.8850700073242187	-0.001187710046768188	0.06021989822387695	0.9067630004882813	-0.015967100143432618	0.051073200225830076	0.9364169921875	0.020576900482177734	0.10056099700927734	0.9090479736328125	0.010116000175476075	0.09065350341796875	0.921666015625	0.0009611979722976682	0.08135659790039063	0.9328880004882812	-0.011111000061035155	0.06556279754638672	0.950551025390625	-0.05459479904174805	0.03824129867553711	1.000239990234375
